<svg width="235" height="181" viewBox="0 0 235 181" fill="none" xmlns="http://www.w3.org/2000/svg">
<path d="M317.663 123.487L282.422 116.933C281.565 116.773 280.626 115.967 280.336 115.139L269.534 89.9375C269.131 89.1594 269.208 87.9374 269.706 87.2129L290.238 57.2866C290.729 56.5663 290.633 55.4708 290.013 54.8513L264.368 29.206C263.748 28.5865 262.655 28.4857 261.935 28.9809L231.483 49.8779C230.763 50.3731 229.528 50.461 228.746 50.0751L204.316 40.0747C203.486 39.8003 202.678 38.872 202.515 38.0124L195.73 1.56277C195.572 0.703139 194.725 0 193.85 0H157.578C156.706 0 155.859 0.703139 155.701 1.56277L148.918 38.0124C148.755 38.872 147.949 39.8003 147.117 40.0747L122.685 50.0751C121.901 50.461 120.666 50.3731 119.948 49.8779L89.4983 28.9809C88.7758 28.4857 87.6804 28.5865 87.063 29.206L61.4156 54.8513C60.7982 55.4708 60.6953 56.5663 61.1905 57.2866L81.7251 87.2129C82.2182 87.9374 82.2954 89.1594 81.8945 89.9375L71.0902 115.139C70.8029 115.967 69.8661 116.773 69.0043 116.933L33.7659 123.487C32.9041 123.65 32.2031 124.494 32.2031 125.369L32.2053 161.638C32.2053 162.513 32.9084 163.364 33.768 163.521L68.1425 169.917C69.0022 170.074 69.9218 170.891 70.1834 171.725L80.9148 198.532C81.2985 199.319 81.2085 200.549 80.7112 201.269L61.1862 229.723C60.6931 230.443 60.7939 231.541 61.4113 232.16L87.0609 257.806C87.6783 258.421 88.7737 258.522 89.4961 258.031L117.446 238.847C118.166 238.354 119.373 238.315 120.126 238.754L132.452 245.336C133.232 245.734 134.143 245.398 134.478 244.59L159.894 183.179C160.23 182.37 159.894 181.339 159.148 180.883L156.063 178.994C155.493 178.647 154.719 178.049 154.112 177.5C142.984 170.374 135.601 157.908 135.601 143.713C135.601 121.559 153.561 103.602 175.712 103.602C197.863 103.602 215.821 121.559 215.821 143.713C215.821 157.908 208.44 170.374 197.31 177.5C196.708 178.049 195.932 178.647 195.364 178.994L192.279 180.883C191.537 181.339 191.198 182.37 191.533 183.179L216.947 244.592C217.281 245.4 218.19 245.734 218.972 245.338L231.299 238.757C232.053 238.317 233.258 238.354 233.978 238.849L261.93 258.033C262.651 258.524 263.748 258.423 264.363 257.808L290.013 232.162C290.633 231.543 290.733 230.445 290.238 229.725L270.711 201.271C270.218 200.551 270.126 199.321 270.509 198.534L281.241 171.727C281.505 170.893 282.418 170.076 283.28 169.92L317.654 163.523C318.512 163.366 319.217 162.515 319.217 161.641L319.221 125.371C319.223 124.494 318.52 123.65 317.663 123.487Z" fill="#DCEEDC"/>
</svg>
