<svg width="127" height="185" viewBox="0 0 127 185" fill="none" xmlns="http://www.w3.org/2000/svg">
<path fill-rule="evenodd" clip-rule="evenodd" d="M73.5 110.25C73.5 89.954 89.954 73.5 110.25 73.5C130.546 73.5 147 89.954 147 110.25C147 130.546 130.546 147 110.25 147C89.954 147 73.5 130.546 73.5 110.25Z" fill="#DCEEDC"/>
<path fill-rule="evenodd" clip-rule="evenodd" d="M0 183.75C0 163.454 16.4536 147 36.7502 147H73.5003V183.75C73.5003 204.046 57.0464 220.5 36.7502 220.5C16.4536 220.5 0 204.046 0 183.75Z" fill="#D1E2D1"/>
<path fill-rule="evenodd" clip-rule="evenodd" d="M73.5 0V73.5003H110.25C130.546 73.5003 147 57.0464 147 36.7502C147 16.4536 130.546 0 110.25 0H73.5Z" fill="#D1E2D1"/>
<path fill-rule="evenodd" clip-rule="evenodd" d="M0 36.7502C0 57.0464 16.4536 73.5003 36.7502 73.5003H73.5003V0H36.7502C16.4536 0 0 16.4536 0 36.7502Z" fill="#DCEEDC"/>
<path fill-rule="evenodd" clip-rule="evenodd" d="M0 110.25C0 130.546 16.4536 147 36.7502 147H73.5003V73.5H36.7502C16.4536 73.5 0 89.954 0 110.25Z" fill="#D1E2D1"/>
</svg>
