<svg width="161" height="182" viewBox="0 0 161 182" fill="none" xmlns="http://www.w3.org/2000/svg">
<path d="M0 7C0 -9.56855 13.4315 -23 30 -23H175C191.569 -23 205 -9.56854 205 7V152C205 168.569 191.569 182 175 182H30C13.4315 182 0 168.569 0 152V7Z" fill="#DCEEDC"/>
<path d="M53.8992 148.311L69.5865 138.817C72.6135 144.183 75.3666 148.724 81.9706 148.724C88.3008 148.724 92.2927 146.248 92.2927 136.616V71.1136H111.557V136.888C111.557 156.841 99.8609 165.924 82.7962 165.924C67.3852 165.924 58.4397 157.942 53.8984 148.31M122.021 146.247L137.707 137.165C141.836 143.909 147.203 148.862 156.697 148.862C164.68 148.862 169.77 144.871 169.77 139.367C169.77 132.762 164.541 130.422 155.734 126.57L150.919 124.504C137.02 118.589 127.8 111.157 127.8 95.4702C127.8 81.0209 138.808 70.0117 156.01 70.0117C168.257 70.0117 177.064 74.2783 183.394 85.4243L168.393 95.0577C165.09 89.1408 161.514 86.8017 156.009 86.8017C150.367 86.8017 146.789 90.3796 146.789 95.0577C146.789 100.837 150.367 103.178 158.623 106.756L163.439 108.819C179.815 115.838 189.034 122.993 189.034 139.092C189.034 156.432 175.411 165.926 157.11 165.926C139.221 165.926 127.662 157.395 122.02 146.248" fill="#D1E2D1"/>
</svg>
