<svg width="199" height="204" viewBox="0 0 199 204" fill="none" xmlns="http://www.w3.org/2000/svg">
<g clip-path="url(#clip0_972_2642)">
<path d="M233.497 81.3579C230.476 80.3276 227.43 79.3708 224.36 78.4877C224.87 76.427 225.344 74.3582 225.78 72.2812C232.695 38.9184 228.175 12.0318 212.716 3.17596C197.899 -5.31194 173.672 3.54393 149.199 24.7024C146.787 26.7875 144.433 28.934 142.136 31.1419C140.596 29.67 139.032 28.2308 137.444 26.8243C111.785 4.21855 86.0643 -5.29967 70.6296 3.5562C55.8492 12.0686 51.4657 37.3484 57.6643 68.9695C58.2982 72.1013 58.9979 75.2168 59.7635 78.316C56.1456 79.3463 52.6264 80.4379 49.2678 81.6032C19.2009 92.0291 0 108.343 0 125.269C0 142.748 20.6209 160.288 51.935 170.898C54.4704 171.765 57.0305 172.566 59.6153 173.302C58.7757 176.63 58.0348 179.983 57.3927 183.36C51.441 214.429 56.0838 239.108 70.8518 247.571C86.089 256.304 111.674 247.326 136.604 225.689C138.58 223.988 140.555 222.181 142.531 220.268C145.017 222.663 147.569 224.986 150.187 227.234C174.339 247.865 198.17 256.182 212.914 247.718C228.163 238.948 233.115 212.442 226.681 180.195C226.187 177.742 225.619 175.232 224.977 172.664C226.772 172.141 228.534 171.597 230.262 171.033C262.823 160.313 284 142.981 284 125.269C284 108.269 264.182 91.8451 233.497 81.3579ZM157.188 33.8036C178.154 15.6748 197.75 8.53609 206.703 13.6386C216.21 19.0846 219.89 41.0526 213.914 69.8649C213.527 71.7456 213.103 73.6141 212.642 75.4703C200.128 72.6526 187.439 70.6612 174.66 69.5092C167.337 59.061 159.314 49.1155 150.643 39.7402C152.767 37.7122 154.941 35.7334 157.163 33.8036H157.188ZM83.8417 139.706C86.4183 144.645 89.106 149.51 91.9049 154.302C94.7613 159.209 97.733 164.045 100.82 168.813C92.0281 167.869 83.2908 166.477 74.6426 164.642C77.1616 156.584 80.2485 148.206 83.8541 139.718L83.8417 139.706ZM83.8417 111.372C80.3103 103.056 77.2974 94.8747 74.8278 86.9633C82.9156 85.1603 91.5591 83.6884 100.561 82.5722C97.5478 87.2332 94.6461 91.9759 91.8555 96.8005C89.0566 101.592 86.3813 106.45 83.8294 111.372H83.8417ZM90.2873 125.551C94.0246 117.824 98.0582 110.244 102.388 102.811C106.685 95.3694 111.27 88.1122 116.144 81.039C124.59 80.4011 133.245 80.0577 142 80.0577C150.792 80.0577 159.46 80.4011 167.906 81.039C172.721 88.1122 177.282 95.349 181.587 102.749C185.917 110.158 190 117.701 193.836 125.38C190.049 133.132 185.983 140.745 181.637 148.218C177.331 155.643 172.787 162.921 168.005 170.052C159.583 170.665 150.878 170.959 142 170.959C133.159 170.959 124.565 170.689 116.292 170.15C111.386 163.036 106.759 155.746 102.413 148.28C98.0829 140.839 94.041 133.258 90.2873 125.539V125.551ZM192.157 154.253C195.005 149.322 197.746 144.334 200.381 139.289C203.989 147.395 207.17 155.681 209.913 164.115C201.169 166.064 192.328 167.558 183.427 168.592C186.423 163.866 189.329 159.082 192.145 154.241L192.157 154.253ZM200.257 111.384C197.639 106.445 194.923 101.555 192.107 96.7146C189.325 91.9555 186.444 87.2536 183.464 82.609C192.515 83.7497 201.195 85.2584 209.357 87.1105C206.737 95.3527 203.7 103.458 200.257 111.397V111.384ZM142.123 48.3875C148.033 54.7843 153.613 61.4736 158.842 68.4298C147.664 67.8983 136.476 67.8983 125.281 68.4298C130.801 61.193 136.456 54.4713 142.136 48.3875H142.123ZM76.7294 13.9821C86.2372 8.52383 107.229 16.3126 129.381 35.8519C130.801 37.103 132.221 38.4032 133.641 39.7524C124.92 49.1291 116.835 59.0698 109.439 69.5092C96.6972 70.6454 84.043 72.5997 71.5557 75.3599C70.8312 72.4816 70.1809 69.5787 69.6047 66.6512V66.6758C64.2581 39.5685 67.8019 19.1337 76.7294 14.0066V13.9821ZM62.8504 161.699C60.5043 161.028 58.1747 160.304 55.8616 159.528C43.8274 155.767 32.593 149.838 22.72 142.037C19.8947 140.107 17.4979 137.623 15.6777 134.737C13.8576 131.85 12.6528 128.624 12.1379 125.257C12.1379 114.991 27.548 101.891 53.2562 92.9981C56.4913 91.8696 59.7511 90.8475 63.0357 89.9316C66.8502 102.095 71.4702 113.994 76.8652 125.551C71.4019 137.277 66.7243 149.348 62.8628 161.686L62.8504 161.699ZM128.615 216.649C119.325 225.113 108.547 231.807 96.8193 236.397C93.73 237.868 90.3698 238.695 86.9463 238.826C83.5228 238.956 80.1086 238.389 76.9146 237.157C67.9624 232.006 64.2334 212.209 69.3083 185.641C69.9175 182.493 70.609 179.369 71.3828 176.27C84.0024 178.96 96.7912 180.796 109.661 181.765C117.117 192.261 125.26 202.259 134.036 211.694C132.274 213.386 130.471 215.034 128.627 216.637L128.615 216.649ZM142.469 203.01C136.715 196.852 130.986 190.032 125.38 182.698C130.813 182.91 136.353 183.016 142 183.016C147.787 183.016 153.5 182.894 159.139 182.648C153.936 189.714 148.372 196.51 142.469 203.01ZM216.149 219.777C215.887 223.173 214.927 226.48 213.328 229.492C211.729 232.505 209.524 235.16 206.851 237.292C197.899 242.444 178.759 235.747 158.114 218.109C155.751 216.097 153.372 213.947 150.977 211.657C159.584 202.192 167.538 192.16 174.783 181.63C187.725 180.546 200.577 178.579 213.247 175.743C213.823 178.065 214.334 180.338 214.778 182.563C217.526 194.784 217.987 207.403 216.136 219.789L216.149 219.777ZM226.447 159.589C224.879 160.104 223.286 160.595 221.656 161.061C217.687 148.84 212.885 136.903 207.283 125.331C212.678 113.916 217.298 102.155 221.113 90.1279C224.002 90.9497 226.83 91.8451 229.546 92.765C255.847 101.744 271.874 115.04 271.874 125.269C271.874 136.186 254.55 150.34 226.434 159.589H226.447Z" fill="#DCEEDC"/>
<path d="M142.003 100.076C147.02 100.076 151.925 101.554 156.096 104.324C160.268 107.093 163.518 111.029 165.437 115.634C167.356 120.239 167.857 125.306 166.876 130.194C165.896 135.082 163.478 139.571 159.928 143.093C156.379 146.616 151.857 149.013 146.936 149.983C142.014 150.952 136.914 150.45 132.28 148.539C127.646 146.628 123.687 143.395 120.903 139.249C118.119 135.103 116.636 130.229 116.641 125.245C116.65 118.57 119.327 112.171 124.082 107.455C128.838 102.738 135.283 100.088 142.003 100.088" fill="#DCEEDC"/>
</g>
<defs>
<clipPath id="clip0_972_2642">
<rect width="284" height="251" fill="white"/>
</clipPath>
</defs>
</svg>
