<svg width="201" height="216" viewBox="0 0 201 216" fill="none" xmlns="http://www.w3.org/2000/svg">
<path d="M189.273 156.269C198.891 155.29 206.187 147.139 205.855 137.356C205.525 127.574 197.232 119.748 187.283 119.748H186.62C176.338 120.074 168.378 128.552 168.71 138.66C169.042 143.551 171.031 147.79 174.016 150.725C162.74 172.572 145.494 188.549 119.625 201.918C102.047 211.048 83.8065 214.309 65.5658 212.027C50.641 210.07 39.033 203.55 31.7355 192.788C21.1232 176.811 20.1285 159.529 29.0834 142.247C35.3853 129.856 45.3338 120.726 51.6356 116.161C50.3091 111.922 48.3188 104.749 47.3241 99.5322C-0.766275 133.77 4.20901 180.072 18.802 201.918C29.7462 218.223 51.9675 228.331 76.5101 228.331C83.1428 228.331 89.7755 227.678 96.4092 226.049C138.862 217.896 171.032 193.114 189.273 156.269ZM247.645 115.836C222.439 86.8149 185.294 70.8378 142.841 70.8378H137.535C134.55 64.9686 128.248 61.0551 121.284 61.0551H120.62C110.339 61.3814 102.38 69.8589 102.711 79.9679C103.043 89.7496 111.334 97.5755 121.284 97.5755H121.946C129.243 97.2492 135.545 92.6842 138.198 86.4887H144.168C169.374 86.4887 193.253 93.662 214.811 107.683C231.394 118.444 243.333 132.465 249.966 149.421C255.604 163.116 255.272 176.485 249.302 187.898C240.017 205.179 224.429 214.635 203.866 214.635C190.6 214.635 177.997 210.722 171.363 207.787C167.716 211.048 161.082 216.265 156.438 219.527C170.701 226.048 185.294 229.635 199.223 229.635C231.062 229.635 254.61 212.352 263.564 195.071C273.182 176.158 272.518 143.551 247.645 115.836ZM79.1631 161.811C79.495 171.593 87.7862 179.418 97.7357 179.418H98.3995C108.681 179.093 116.64 170.614 116.308 160.506C115.977 150.724 107.685 142.899 97.7357 142.899H97.073C96.4092 142.899 95.4135 142.899 94.7518 143.224C81.1535 121.051 75.5154 96.9229 77.5057 70.8368C78.8312 51.2724 85.465 34.3163 97.073 20.2949C106.691 8.23017 125.263 2.36095 137.867 2.03566C173.022 1.38308 187.946 44.4243 188.941 61.7066C193.253 62.6845 200.549 64.9675 205.525 66.598C201.544 13.7751 168.378 -13.6152 136.54 -13.6152C106.691 -13.6152 79.1631 7.57959 68.2179 38.8824C52.9622 80.6195 62.9117 120.726 81.4843 152.355C79.8269 154.637 78.8312 158.224 79.1631 161.812V161.811Z" fill="#DCEEDC"/>
</svg>
