<svg width="187" height="166" viewBox="0 0 187 166" fill="none" xmlns="http://www.w3.org/2000/svg">
<path d="M145.9 133.867L147.031 136.645V136.645L145.9 133.867ZM100.891 133.573L99.701 136.327V136.327L100.891 133.573ZM157.838 129.01L156.707 126.231V126.231L157.838 129.01ZM91.0134 129.303L92.2038 126.549V126.549L91.0134 129.303ZM125 25.8311C123.343 25.8311 122 27.1743 122 28.8311C122 30.488 123.343 31.8311 125 31.8311V28.8311V25.8311ZM126.452 31.8311C128.109 31.8311 129.452 30.488 129.452 28.8311C129.452 27.1743 128.109 25.8311 126.452 25.8311V28.8311V31.8311ZM37.8571 3V6H210.69V3V0H37.8571V3ZM225.214 17.3506H222.214V125.688H225.214H228.214V17.3506H225.214ZM23.3333 125.688H26.3333V17.3506H23.3333H20.3333V125.688H23.3333ZM210.69 3V6C217.089 6 222.214 11.1157 222.214 17.3506H225.214H228.214C228.214 7.73432 220.335 0 210.69 0V3ZM37.8571 3V0C28.213 0 20.3333 7.73432 20.3333 17.3506H23.3333H26.3333C26.3333 11.1157 31.4587 6 37.8571 6V3ZM214.911 163V160H35.0892V163V166H214.911V163ZM35.0892 163V160C18.9897 160 6 147.114 6 131.293H3H0C0 150.495 15.744 166 35.0892 166V163ZM247 131.293H244C244 147.114 231.01 160 214.911 160V163V166C234.256 166 250 150.495 250 131.293H247ZM242.063 126.415V129.415C243.167 129.415 244 130.29 244 131.293H247H250C250 126.909 246.413 123.415 242.063 123.415V126.415ZM7.93681 126.415V123.415C3.58746 123.415 0 126.909 0 131.293H3H6C6 130.29 6.83311 129.415 7.93681 129.415V126.415ZM7.93681 126.415V129.415H77.042V126.415V123.415H7.93681V126.415ZM171.11 126.415V129.415H242.063V126.415V123.415H171.11V126.415ZM91.0134 129.303L89.823 132.057L99.701 136.327L100.891 133.573L102.082 130.819L92.2038 126.549L91.0134 129.303ZM114.863 136.461V139.461H132.628V136.461V133.461H114.863V136.461ZM145.9 133.867L147.031 136.645L158.969 131.788L157.838 129.01L156.707 126.231L144.769 131.088L145.9 133.867ZM132.628 136.461V139.461C137.568 139.461 142.461 138.505 147.031 136.645L145.9 133.867L144.769 131.088C140.919 132.654 136.794 133.461 132.628 133.461V136.461ZM100.891 133.573L99.701 136.327C104.483 138.394 109.645 139.461 114.863 139.461V136.461V133.461C110.463 133.461 106.111 132.561 102.082 130.819L100.891 133.573ZM171.11 126.415V123.415C166.17 123.415 161.277 124.372 156.707 126.231L157.838 129.01L158.969 131.788C162.819 130.222 166.944 129.415 171.11 129.415V126.415ZM77.042 126.415V129.415C81.4422 129.415 85.7939 130.315 89.823 132.057L91.0134 129.303L92.2038 126.549C87.4215 124.482 82.2595 123.415 77.042 123.415V126.415ZM125 28.8311V31.8311H126.452V28.8311V25.8311H125V28.8311Z" fill="#DCEEDC"/>
</svg>
