<svg width="196" height="216" viewBox="0 0 196 216" fill="none" xmlns="http://www.w3.org/2000/svg">
<g clip-path="url(#clip0_979_2474)">
<mask id="path-1-inside-1_979_2474" fill="white">
<path fill-rule="evenodd" clip-rule="evenodd" d="M71.9062 181.562C67.6559 184.22 61.2519 188.526 56.2977 193.21C48.1644 200.891 46.4624 211.545 50.753 214.034C54.7219 216.335 63.9877 213.597 70.6192 206.364C77.5789 198.77 80.4491 189.143 77.4848 178.215C77.1365 178.422 76.7947 178.631 76.4592 178.825L76.4665 178.839L76.0168 179.094C74.2865 180.127 72.8724 180.979 71.9062 181.562ZM191.355 178.115C188.948 183.348 188.827 185.031 189.558 185.555C193.052 184.3 198.831 181.275 198.877 173.17C198.884 171.957 198.617 170.654 198.187 169.293C194.452 172.6 192.299 176.063 191.355 178.115ZM228.836 162.296C219.504 161.208 212.222 162.517 206.57 164.871C207.616 167.595 208.421 170.433 208.534 173.291C208.797 179.564 204.479 184.207 199.979 187.521C197.351 189.453 194.555 190.741 192.207 191.519C190.331 192.311 187.836 193.129 186.066 192.768C182.163 191.974 180.085 188.507 182.74 180.859C184.174 176.72 188.311 170.42 194.99 164.993C193.468 161.86 191.771 158.667 190.907 155.734C189.203 149.951 188.688 146.456 188.688 146.456C188.688 146.456 183.184 157.868 176.082 168.246C175.673 168.849 175.264 169.441 174.855 170.03C176.25 173.272 177.348 176.699 177.497 180.156C177.759 186.428 175.043 191.171 170.537 194.478C168.097 196.277 165.495 197.519 163.262 198.31C161.834 198.933 158.93 199.959 154.8 200.235C152.541 200.389 150.369 200.249 149.156 199.33C147.486 198.068 147.285 196.512 148.149 194.385C148.881 192.579 154.351 186.335 158.938 180.867C160.205 179.357 161.412 177.814 162.491 176.385L162.465 176.324C162.465 176.325 163.295 175.252 164.644 173.38C162.967 169.77 160.842 166.012 159.843 162.605C158.139 156.822 157.624 153.326 157.624 153.326C157.624 153.326 152.044 167.63 146.232 179.049C141.734 187.892 138.729 193.251 137.375 195.6L137.362 195.694C137.362 195.694 137.16 196.036 136.811 196.573L136.551 197.008L136.544 196.968C135.034 199.196 131.649 203.563 128.283 203.563C119.044 203.563 122.436 184.798 122.436 184.798C122.436 184.798 119.735 191.749 116.69 197.713C114.21 202.577 111.951 206.697 107.009 206.697C105.588 206.697 103.335 206.656 101.464 204.877C97.2197 200.845 93.9748 190.607 94.6109 182.677C95.1539 175.935 96.1932 171.265 97.6146 167.369C95.0799 168.75 92.1503 170.388 89.1668 172.139L84.58 174.842L84.7281 175.111C88.5224 182.451 89.5352 198.532 81.2611 210.876C72.9879 223.227 57.5868 230.742 42.5816 226.569C37.7398 225.22 30.4255 215.203 36.7343 201.242C42.2992 188.93 64.5392 177.291 70.4002 174.386L72.0089 173.5C60.3235 163.275 31.143 149.482 27.0535 128.295C25.9 122.331 28.6961 108.068 46.2086 91.6715C60.9387 77.8847 81.4293 67.3245 100.358 60.5952C132.158 49.291 165.757 55.9591 170.926 76.2339C176.008 96.1733 158.71 120.024 136.557 128.598C116.778 136.252 100.424 135.038 93.706 132.832C86.069 130.323 81.5901 125.283 80.4978 122.439C80.0682 121.326 79.3297 119.454 80.4978 118.81C81.2144 118.414 81.5024 118.508 83.4201 120.628C85.2446 122.641 92.579 128.042 106.512 126.478C143.075 122.379 165.099 93.953 158.139 78.6562C153.265 67.9488 125.085 63.118 89.877 80.6753C46.8987 102.104 44.566 119.769 44.1977 126.478C43.1913 144.934 66.9596 154.642 79.8205 168.368L80.3159 168.912C82.7226 167.583 85.2647 166.181 87.7582 164.813C94.2426 161.25 100.358 157.908 103.207 156.351C107.733 149.772 116.918 142.512 123.549 142.512C134.15 142.512 130.509 157.748 130.509 157.748C130.509 157.748 130.724 157.051 131.012 157.044C131.313 157.036 132.481 155.037 135.753 156.231C139.118 157.466 138.353 159.828 138.374 160.069C138.415 160.538 134.398 174.083 132.729 182.772C131.93 186.918 132.393 189.938 132.629 189.938C132.957 189.938 133.628 188.884 134.251 187.75L134.237 187.717C134.237 187.717 134.706 186.858 135.491 185.315L135.646 184.993L135.652 185.007C136.578 183.196 137.878 180.532 139.38 177.231C142.323 170.744 153.553 145.699 154.506 142.928C155.457 140.158 155.954 137.293 156.424 136.065C156.886 134.837 160.856 133.911 165.495 133.945C170.134 133.979 170.605 135.958 170.637 136.367C170.671 136.776 168.432 142.271 167.915 146.155C167.406 150.04 167.896 151.978 168.318 155.239C168.593 157.372 169.927 160.076 171.504 163.142C176.304 155.292 184.751 140.278 185.563 136.071C186.119 133.194 187.011 130.436 187.481 129.207C187.95 127.98 191.913 127.055 196.552 127.088C201.192 127.122 201.66 129.101 201.694 129.51C201.728 129.92 199.481 135.414 198.972 139.299C198.462 143.176 198.953 145.122 199.374 148.383C199.737 151.173 201.895 154.924 204.035 159.19C209.874 156.311 216.747 154.38 224.794 154.34C228.125 154.32 231.995 154.655 233.993 155.278V91.0938C233.993 86.5656 231.672 82.3929 227.751 80.1324L123.047 19.616C119.132 17.3546 114.338 17.3546 110.422 19.616L6.00813 80.1031C2.09229 82.3645 0 86.5445 0 91.0655V212.15C0 216.671 2.10509 220.851 6.01453 223.112L110.597 283.647C114.512 285.915 119.26 285.915 123.174 283.647L227.804 223.112C231.719 220.844 234 216.67 234 212.15V163.215C232.672 162.824 230.728 162.516 228.836 162.296ZM116.19 155.955C113.944 158.471 110.116 164.958 108.326 170.387C104.765 181.168 106.307 192.124 108.828 192.782C111.772 193.552 116.6 179.142 118.911 173.506C120.36 169.977 125.993 154.313 124.759 152.219C123.795 150.582 119.804 151.904 116.19 155.955ZM156.925 192.29C156.925 192.29 156.215 192.962 156.522 193.149C156.938 193.398 157.837 193.075 158.816 192.565C161.585 190.822 167.8 186.474 167.814 180.04C167.814 179.852 167.806 179.671 167.794 179.477C166.352 181.369 165.024 183.052 163.878 184.481C161.92 186.916 156.925 192.29 156.925 192.29Z"/>
</mask>
<path d="M71.9062 181.562M56.2977 193.21L61.7905 199.026L61.7936 199.023L56.2977 193.21ZM50.753 214.034L46.7387 220.954L46.7409 220.955L50.753 214.034ZM70.6192 206.364L76.516 211.771L76.5171 211.769L70.6192 206.364ZM77.4848 178.215L85.2058 176.121L82.4461 165.947L73.39 171.342L77.4848 178.215ZM76.4592 178.825L72.4576 171.897L65.935 175.665L69.3039 182.402L76.4592 178.825ZM76.4665 178.839L80.4127 185.798L87.0177 182.053L83.6218 175.261L76.4665 178.839ZM76.0168 179.094L72.0705 172.135L71.9929 172.179L71.9163 172.225L76.0168 179.094ZM71.9062 181.562M191.355 178.115M189.558 185.555L184.9 192.059L188.312 194.503L192.263 193.084L189.558 185.555ZM198.877 173.17L190.877 173.122L190.877 173.125L198.877 173.17ZM198.187 169.293L205.816 166.885L202.107 155.136L192.884 163.304L198.187 169.293ZM191.355 178.115M228.836 162.296L227.91 170.242L227.911 170.242L228.836 162.296ZM206.57 164.871L203.493 157.487L196.312 160.479L199.102 167.741L206.57 164.871ZM208.534 173.291L200.54 173.608L200.541 173.617L200.541 173.625L208.534 173.291ZM199.979 187.521L204.718 193.966L204.723 193.962L199.979 187.521ZM192.207 191.519L189.691 183.925L189.39 184.025L189.098 184.148L192.207 191.519ZM186.066 192.768L187.664 184.929L187.659 184.928L186.066 192.768ZM182.74 180.859L190.298 183.483L190.299 183.479L182.74 180.859ZM194.99 164.993L200.035 171.202L204.956 167.202L202.186 161.498L194.99 164.993ZM190.907 155.734L183.233 157.995L183.233 157.996L190.907 155.734ZM188.688 146.456L196.603 145.291L192.806 119.504L181.482 142.98L188.688 146.456ZM176.082 168.246L169.48 163.729L169.471 163.741L169.463 163.753L176.082 168.246ZM174.855 170.03L168.284 165.467L165.751 169.114L167.506 173.193L174.855 170.03ZM177.497 180.156L185.49 179.822L185.49 179.811L177.497 180.156ZM170.537 194.478L165.803 188.028L165.796 188.034L165.789 188.039L170.537 194.478ZM163.262 198.31L160.591 190.768L160.322 190.864L160.06 190.978L163.262 198.31ZM154.8 200.235L154.267 192.253L154.254 192.253L154.8 200.235ZM149.156 199.33L153.989 192.955L153.978 192.946L149.156 199.33ZM148.149 194.385L155.56 197.398L155.564 197.388L148.149 194.385ZM158.938 180.867L152.809 175.725L152.809 175.725L158.938 180.867ZM162.491 176.385L168.874 181.208L171.685 177.487L169.833 173.207L162.491 176.385ZM162.465 176.324L169.806 173.146L154.465 176.324H162.465ZM164.644 173.38L171.135 178.055L173.871 174.256L171.899 170.01L164.644 173.38ZM159.843 162.605L167.52 160.354L167.517 160.343L159.843 162.605ZM157.624 153.326L165.538 152.159L161.136 122.306L150.171 150.419L157.624 153.326ZM146.232 179.049L139.102 175.419L139.101 175.422L146.232 179.049ZM137.375 195.6L130.445 191.604L129.679 192.931L129.459 194.448L137.375 195.6ZM137.362 195.694L144.254 199.756L145.052 198.401L145.278 196.846L137.362 195.694ZM136.811 196.573L130.101 192.217L130.022 192.339L129.948 192.463L136.811 196.573ZM136.551 197.008L128.68 198.44L132.487 219.369L143.415 201.118L136.551 197.008ZM136.544 196.968L144.414 195.536L140.907 176.257L129.92 192.482L136.544 196.968ZM122.436 184.798L130.308 186.221L114.979 181.9L122.436 184.798ZM116.69 197.713L109.565 194.075L109.563 194.079L116.69 197.713ZM101.464 204.877L106.976 199.079L106.974 199.077L101.464 204.877ZM94.6109 182.677L86.6368 182.035L86.6366 182.038L94.6109 182.677ZM97.6146 167.369L105.13 170.11L112.39 150.207L93.7868 160.344L97.6146 167.369ZM89.1668 172.139L85.1169 165.24L85.1053 165.247L89.1668 172.139ZM84.58 174.842L80.5185 167.95L73.8223 171.896L77.5734 178.703L84.58 174.842ZM84.7281 175.111L91.8347 171.437L91.786 171.343L91.7348 171.25L84.7281 175.111ZM81.2611 210.876L74.6157 206.422L74.6144 206.424L81.2611 210.876ZM42.5816 226.569L40.4342 234.275L40.4383 234.276L42.5816 226.569ZM36.7343 201.242L29.4444 197.947L29.4441 197.948L36.7343 201.242ZM70.4002 174.386L73.9528 181.554L74.1074 181.477L74.2586 181.394L70.4002 174.386ZM72.0089 173.5L75.8674 180.508L85.8718 175L77.277 167.48L72.0089 173.5ZM27.0535 128.295L34.9085 126.779L34.9079 126.776L27.0535 128.295ZM46.2086 91.6715L40.7419 85.8307L40.7409 85.8316L46.2086 91.6715ZM100.358 60.5952L97.6781 53.0573L97.6778 53.0574L100.358 60.5952ZM170.926 76.2339L178.678 74.258L178.678 74.2575L170.926 76.2339ZM136.557 128.598L139.445 136.059L139.445 136.059L136.557 128.598ZM93.706 132.832L91.209 140.432L91.2097 140.432L93.706 132.832ZM80.4978 122.439L87.9661 119.571L87.9614 119.559L80.4978 122.439ZM80.4978 118.81L84.362 125.815L84.3655 125.813L80.4978 118.81ZM83.4201 120.628L77.4876 125.995L77.4928 126.001L83.4201 120.628ZM106.512 126.478L105.621 118.528L105.62 118.528L106.512 126.478ZM158.139 78.6562L165.421 75.3432L165.42 75.3419L158.139 78.6562ZM89.877 80.6753L93.4466 87.8348L93.4471 87.8345L89.877 80.6753ZM44.1977 126.478L36.2097 126.04L36.2095 126.043L44.1977 126.478ZM79.8205 168.368L85.7346 162.98L85.6967 162.939L85.6583 162.898L79.8205 168.368ZM80.3159 168.912L74.4018 174.299L78.6535 178.966L84.1812 175.916L80.3159 168.912ZM87.7582 164.813L91.6069 171.826L91.6108 171.824L87.7582 164.813ZM103.207 156.351L107.043 163.372L108.716 162.457L109.798 160.886L103.207 156.351ZM130.509 157.748L122.728 155.889L138.155 160.103L130.509 157.748ZM131.012 157.044L131.189 165.042L131.21 165.042L131.23 165.041L131.012 157.044ZM135.753 156.231L138.509 148.72L138.502 148.718L138.495 148.715L135.753 156.231ZM138.374 160.069L146.345 159.385L146.344 159.375L138.374 160.069ZM132.729 182.772L140.585 184.285L140.586 184.281L132.729 182.772ZM134.251 187.75L141.261 191.606L143.095 188.271L141.665 184.744L134.251 187.75ZM134.237 187.717L127.217 183.881L125.399 187.209L126.824 190.723L134.237 187.717ZM135.491 185.315L142.621 188.944L142.665 188.857L142.707 188.77L135.491 185.315ZM135.646 184.993L142.975 181.787L135.974 165.781L128.43 181.538L135.646 184.993ZM135.652 185.007L128.323 188.213L135.091 203.685L142.776 188.648L135.652 185.007ZM139.38 177.231L146.662 180.545L146.665 180.537L139.38 177.231ZM154.506 142.928L162.071 145.529L162.072 145.527L154.506 142.928ZM156.424 136.065L163.896 138.922L163.903 138.904L163.91 138.885L156.424 136.065ZM165.495 133.945L165.436 141.945H165.436L165.495 133.945ZM170.637 136.367L162.661 136.99L162.663 137.009L162.664 137.027L170.637 136.367ZM167.915 146.155L159.985 145.101L159.984 145.108L159.983 145.116L167.915 146.155ZM168.318 155.239L176.252 154.215L176.252 154.212L168.318 155.239ZM171.504 163.142L164.389 166.801L170.901 179.462L178.329 167.316L171.504 163.142ZM185.563 136.071L177.708 134.554L177.708 134.555L185.563 136.071ZM187.481 129.207L194.953 132.065L194.954 132.062L187.481 129.207ZM196.552 127.088L196.61 119.088L196.609 119.088L196.552 127.088ZM198.972 139.299L206.904 140.342L206.904 140.338L198.972 139.299ZM199.374 148.383L191.44 149.408L191.441 149.414L199.374 148.383ZM204.035 159.19L196.884 162.777L200.446 169.878L207.572 166.365L204.035 159.19ZM224.794 154.34L224.834 162.34L224.84 162.339L224.794 154.34ZM233.993 155.278L231.61 162.915L241.993 166.155V155.278H233.993ZM227.751 80.1324L223.747 87.0587L223.755 87.0633L227.751 80.1324ZM123.047 19.616L127.051 12.6897L127.049 12.6886L123.047 19.616ZM110.422 19.616L106.422 12.6882L106.412 12.6936L110.422 19.616ZM6.00813 80.1031L10.0089 87.0309L10.0182 87.0255L6.00813 80.1031ZM6.01453 223.112L10.0222 216.188L10.019 216.186L6.01453 223.112ZM110.597 283.647L114.608 276.725L114.605 276.723L110.597 283.647ZM123.174 283.647L119.168 276.722L119.163 276.725L123.174 283.647ZM227.804 223.112L231.811 230.036L231.814 230.034L227.804 223.112ZM234 163.215H242V157.232L236.26 155.541L234 163.215ZM116.19 155.955M108.326 170.387L115.922 172.896L115.923 172.893L108.326 170.387ZM108.828 192.782L110.855 185.043L110.849 185.041L108.828 192.782ZM118.911 173.506L111.511 170.468L111.51 170.47L118.911 173.506ZM124.759 152.219L117.864 156.277L117.867 156.282L124.759 152.219ZM116.19 155.955M156.925 192.29M156.522 193.149L152.356 199.978L152.387 199.997L152.417 200.016L156.522 193.149ZM158.816 192.565L162.512 199.66L162.801 199.509L163.077 199.336L158.816 192.565ZM167.814 180.04L175.814 180.057L175.814 180.048V180.04H167.814ZM167.794 179.477L175.776 178.952L174.375 157.636L161.43 174.628L167.794 179.477ZM163.878 184.481L170.112 189.494L170.118 189.487L163.878 184.481ZM156.925 192.29M71.9062 181.562L67.6644 174.779C63.2898 177.515 56.3445 182.157 50.8018 187.397L56.2977 193.21L61.7936 199.023C66.1594 194.896 72.0219 190.925 76.1481 188.345L71.9062 181.562ZM56.2977 193.21L50.805 187.394C45.6582 192.254 42.3506 198.213 41.0703 203.774C40.4344 206.537 40.2151 209.574 40.8453 212.497C41.48 215.44 43.1545 218.875 46.7387 220.954L50.753 214.034L54.7673 207.114C56.2062 207.949 56.4845 209.118 56.4858 209.124C56.4905 209.146 56.4593 209.006 56.4717 208.678C56.4838 208.356 56.5356 207.915 56.6625 207.364C57.1938 205.056 58.8039 201.847 61.7905 199.026L56.2977 193.21ZM50.753 214.034L46.7409 220.955C51.8304 223.906 58.0362 222.86 62.3791 221.308C67.2509 219.568 72.3241 216.343 76.516 211.771L70.6192 206.364L64.7225 200.958C62.2829 203.619 59.4074 205.379 56.9962 206.241C55.7933 206.67 54.8894 206.811 54.3579 206.827C53.7502 206.845 54.0516 206.699 54.7651 207.113L50.753 214.034ZM70.6192 206.364L76.5171 211.769C85.2153 202.278 88.9314 189.856 85.2058 176.121L77.4848 178.215L69.7638 180.309C71.9668 188.431 69.9425 195.262 64.7214 200.959L70.6192 206.364ZM77.4848 178.215L73.39 171.342C72.9445 171.608 72.733 171.738 72.4576 171.897L76.4592 178.825L80.4608 185.752C80.8563 185.523 81.3286 185.237 81.5795 185.087L77.4848 178.215ZM76.4592 178.825L69.3039 182.402L69.3112 182.417L76.4665 178.839L83.6218 175.261L83.6145 175.247L76.4592 178.825ZM76.4665 178.839L72.5203 171.88L72.0705 172.135L76.0168 179.094L79.963 186.053L80.4127 185.798L76.4665 178.839ZM76.0168 179.094L71.9163 172.225C70.1707 173.267 68.7446 174.126 67.7722 174.713L71.9062 181.562L76.0403 188.411C77.0002 187.832 78.4022 186.987 80.1173 185.963L76.0168 179.094ZM71.9062 181.562M71.9062 181.562M191.355 178.115L184.088 174.771C182.844 177.474 181.886 179.885 181.451 181.955C181.161 183.333 180.21 188.699 184.9 192.059L189.558 185.555L194.217 179.051C195.028 179.633 195.724 180.388 196.239 181.272C196.738 182.129 196.971 182.938 197.076 183.551C197.179 184.148 197.17 184.609 197.155 184.856C197.146 184.987 197.134 185.086 197.125 185.147C197.116 185.209 197.109 185.243 197.109 185.247C197.108 185.248 197.126 185.166 197.182 184.983C197.238 184.802 197.322 184.553 197.446 184.223C197.696 183.555 198.073 182.655 198.623 181.46L191.355 178.115ZM189.558 185.555L192.263 193.084C194.523 192.272 198.128 190.691 201.225 187.53C204.523 184.164 206.842 179.407 206.877 173.216L198.877 173.17L190.877 173.125C190.866 175.039 190.273 175.846 189.796 176.333C189.119 177.024 188.087 177.583 186.854 178.026L189.558 185.555ZM198.877 173.17L206.877 173.219C206.891 170.853 206.378 168.665 205.816 166.885L198.187 169.293L190.558 171.701C190.855 172.643 190.878 173.06 190.877 173.122L198.877 173.17ZM198.187 169.293L192.884 163.304C188.26 167.398 185.462 171.783 184.087 174.773L191.355 178.115L198.623 181.458C199.137 180.343 200.644 177.803 203.49 175.282L198.187 169.293ZM191.355 178.115M191.355 178.115M228.836 162.296L229.763 154.349C219.166 153.114 210.496 154.569 203.493 157.487L206.57 164.871L209.647 172.256C213.947 170.464 219.842 169.301 227.91 170.242L228.836 162.296ZM206.57 164.871L199.102 167.741C199.999 170.075 200.476 171.986 200.54 173.608L208.534 173.291L216.528 172.974C216.366 168.879 215.234 165.116 214.038 162.002L206.57 164.871ZM208.534 173.291L200.541 173.625C200.627 175.678 199.27 178.107 195.234 181.08L199.979 187.521L204.723 193.962C209.687 190.306 216.966 183.45 216.527 172.957L208.534 173.291ZM199.979 187.521L195.239 181.076C193.398 182.43 191.382 183.365 189.691 183.925L192.207 191.519L194.724 199.113C197.727 198.118 201.304 196.477 204.718 193.966L199.979 187.521ZM192.207 191.519L189.098 184.148C188.378 184.452 187.729 184.677 187.235 184.795C186.998 184.852 186.896 184.86 186.912 184.859C186.914 184.858 187.196 184.834 187.664 184.929L186.066 192.768L184.467 200.606C187.034 201.13 189.437 200.72 190.959 200.356C192.623 199.958 194.16 199.378 195.316 198.89L192.207 191.519ZM186.066 192.768L187.659 184.928C187.66 184.928 187.681 184.932 187.721 184.945C187.76 184.957 187.82 184.978 187.895 185.011C188.048 185.077 188.26 185.192 188.493 185.376C189.017 185.791 189.345 186.317 189.491 186.732C189.612 187.076 189.515 187.077 189.563 186.499C189.611 185.919 189.792 184.941 190.298 183.483L182.74 180.859L175.183 178.235C173.614 182.753 172.842 187.613 174.396 192.036C176.187 197.134 180.348 199.769 184.472 200.607L186.066 192.768ZM182.74 180.859L190.299 183.479C191.157 181.003 194.282 175.876 200.035 171.202L194.99 164.993L189.944 158.784C182.341 164.963 177.192 172.438 175.181 178.24L182.74 180.859ZM194.99 164.993L202.186 161.498C200.433 157.889 199.2 155.575 198.58 153.471L190.907 155.734L183.233 157.996C184.342 161.758 186.503 165.831 187.794 168.488L194.99 164.993ZM190.907 155.734L198.58 153.472C197.79 150.79 197.284 148.668 196.981 147.252C196.83 146.545 196.73 146.015 196.67 145.682C196.64 145.515 196.62 145.398 196.61 145.332C196.604 145.299 196.601 145.279 196.6 145.272C196.599 145.268 196.599 145.268 196.6 145.271C196.6 145.273 196.6 145.275 196.601 145.278C196.601 145.28 196.601 145.282 196.602 145.284C196.602 145.285 196.602 145.286 196.602 145.287C196.602 145.288 196.602 145.288 196.602 145.289C196.603 145.29 196.603 145.291 188.688 146.456C180.773 147.621 180.774 147.622 180.774 147.623C180.774 147.623 180.774 147.624 180.774 147.625C180.774 147.626 180.774 147.628 180.775 147.629C180.775 147.632 180.775 147.635 180.776 147.638C180.777 147.645 180.778 147.653 180.779 147.661C180.782 147.678 180.785 147.698 180.789 147.721C180.796 147.768 180.805 147.829 180.817 147.903C180.842 148.051 180.875 148.251 180.92 148.503C181.01 149.005 181.145 149.711 181.335 150.6C181.716 152.378 182.319 154.895 183.233 157.995L190.907 155.734ZM188.688 146.456C181.482 142.98 181.483 142.98 181.483 142.979C181.483 142.979 181.483 142.979 181.483 142.979C181.483 142.978 181.484 142.978 181.484 142.978C181.484 142.978 181.483 142.979 181.483 142.98C181.481 142.983 181.479 142.988 181.475 142.996C181.467 143.012 181.454 143.039 181.436 143.076C181.399 143.151 181.343 143.266 181.267 143.419C181.115 143.727 180.886 144.186 180.587 144.773C179.989 145.948 179.115 147.63 178.025 149.628C175.833 153.647 172.824 158.842 169.48 163.729L176.082 168.246L182.685 172.764C186.442 167.273 189.736 161.571 192.071 157.29C193.245 155.138 194.191 153.319 194.847 152.03C195.175 151.385 195.431 150.871 195.608 150.513C195.697 150.335 195.765 150.195 195.813 150.097C195.837 150.048 195.856 150.009 195.869 149.981C195.876 149.968 195.882 149.956 195.886 149.948C195.888 149.944 195.889 149.94 195.891 149.938C195.891 149.936 195.892 149.935 195.892 149.934C195.893 149.933 195.893 149.933 195.893 149.933C195.893 149.932 195.894 149.931 188.688 146.456ZM176.082 168.246L169.463 163.753C169.077 164.322 168.687 164.887 168.284 165.467L174.855 170.03L181.425 174.594C181.841 173.995 182.268 173.377 182.701 172.739L176.082 168.246ZM174.855 170.03L167.506 173.193C168.731 176.04 169.416 178.439 169.505 180.5L177.497 180.156L185.49 179.811C185.281 174.96 183.768 170.504 182.203 166.868L174.855 170.03ZM177.497 180.156L169.504 180.489C169.644 183.842 168.376 186.14 165.803 188.028L170.537 194.478L175.27 200.928C181.71 196.201 185.873 189.013 185.49 179.822L177.497 180.156ZM170.537 194.478L165.789 188.039C164.094 189.289 162.223 190.191 160.591 190.768L163.262 198.31L165.932 205.851C168.767 204.847 172.1 203.265 175.284 200.917L170.537 194.478ZM163.262 198.31L160.06 190.978C159.325 191.299 157.323 192.048 154.267 192.253L154.8 200.235L155.334 208.217C160.536 207.869 164.343 206.567 166.463 205.641L163.262 198.31ZM154.8 200.235L154.254 192.253C153.853 192.281 153.509 192.291 153.221 192.288C152.929 192.285 152.742 192.268 152.646 192.256C152.541 192.242 152.618 192.242 152.82 192.311C153.018 192.379 153.463 192.556 153.989 192.955L149.156 199.33L144.323 205.705C146.508 207.361 148.927 207.901 150.526 208.114C152.241 208.344 153.937 208.312 155.346 208.216L154.8 200.235ZM149.156 199.33L153.978 192.946C154.126 193.058 154.464 193.344 154.807 193.855C155.17 194.392 155.44 195.034 155.568 195.721C155.809 197.02 155.416 197.752 155.56 197.398L148.149 194.385L140.738 191.372C140.018 193.144 139.294 195.719 139.837 198.643C140.43 201.836 142.28 204.162 144.334 205.713L149.156 199.33ZM148.149 194.385L155.564 197.388C155.305 198.029 155.153 198.083 155.919 197.052C156.489 196.286 157.286 195.285 158.276 194.082C160.287 191.637 162.674 188.861 165.067 186.008L158.938 180.867L152.809 175.725C150.615 178.34 147.973 181.421 145.92 183.917C144.877 185.184 143.883 186.424 143.078 187.507C142.469 188.326 141.36 189.838 140.735 191.381L148.149 194.385ZM158.938 180.867L165.067 186.009C166.446 184.365 167.74 182.709 168.874 181.208L162.491 176.385L156.108 171.562C155.083 172.919 153.964 174.349 152.809 175.725L158.938 180.867ZM162.491 176.385L169.833 173.207L169.806 173.146L162.465 176.324L155.123 179.502L155.149 179.563L162.491 176.385ZM162.465 176.324H154.465C158.839 183.455 167.682 182.388 168.152 181.949C168.276 181.822 168.451 181.63 168.506 181.568C168.587 181.475 168.648 181.399 168.657 181.388C168.695 181.343 168.723 181.306 168.729 181.3C168.747 181.276 168.762 181.257 168.766 181.252C168.778 181.237 168.788 181.224 168.794 181.216C168.808 181.198 168.824 181.178 168.84 181.156C168.874 181.113 168.92 181.053 168.976 180.98C169.089 180.832 169.249 180.621 169.451 180.351C169.855 179.812 170.43 179.035 171.135 178.055L164.644 173.38L158.152 168.704C157.51 169.596 156.995 170.292 156.646 170.757C156.472 170.99 156.34 171.164 156.255 171.275C156.212 171.331 156.182 171.37 156.165 171.392C156.156 171.404 156.153 171.408 156.154 171.407C156.154 171.406 156.156 171.405 156.157 171.402C156.159 171.4 156.163 171.396 156.168 171.389C156.17 171.386 156.184 171.369 156.202 171.346C156.207 171.34 156.235 171.304 156.272 171.259C156.281 171.248 156.342 171.173 156.423 171.079C156.478 171.017 156.653 170.826 156.777 170.698C157.247 170.26 166.09 169.192 170.465 176.324H162.465ZM164.644 173.38L171.899 170.01C169.794 165.476 168.296 163.001 167.52 160.354L159.843 162.605L152.166 164.855C153.388 169.023 156.141 174.063 157.388 176.749L164.644 173.38ZM159.843 162.605L167.517 160.343C166.726 157.661 166.22 155.538 165.917 154.122C165.766 153.415 165.665 152.885 165.605 152.551C165.575 152.384 165.556 152.267 165.545 152.2C165.54 152.167 165.536 152.147 165.535 152.14C165.535 152.137 165.535 152.136 165.535 152.14C165.535 152.141 165.536 152.144 165.536 152.147C165.537 152.148 165.537 152.15 165.537 152.152C165.537 152.153 165.537 152.154 165.538 152.155C165.538 152.156 165.538 152.157 165.538 152.157C165.538 152.158 165.538 152.159 157.624 153.326C149.709 154.493 149.709 154.494 149.71 154.495C149.71 154.495 149.71 154.496 149.71 154.497C149.71 154.498 149.71 154.499 149.71 154.501C149.711 154.504 149.711 154.507 149.712 154.51C149.713 154.517 149.714 154.524 149.715 154.533C149.718 154.549 149.721 154.57 149.724 154.593C149.732 154.64 149.741 154.701 149.753 154.775C149.777 154.922 149.811 155.123 149.856 155.374C149.946 155.877 150.081 156.582 150.272 157.472C150.652 159.25 151.256 161.766 152.169 164.866L159.843 162.605ZM157.624 153.326C150.171 150.419 150.171 150.419 150.171 150.418C150.171 150.418 150.171 150.418 150.171 150.418C150.171 150.418 150.171 150.419 150.171 150.419C150.17 150.42 150.169 150.422 150.168 150.424C150.166 150.43 150.163 150.438 150.158 150.45C150.149 150.475 150.134 150.512 150.114 150.562C150.075 150.663 150.015 150.815 149.936 151.014C149.778 151.413 149.544 152 149.244 152.743C148.643 154.228 147.782 156.33 146.742 158.782C144.651 163.714 141.886 169.951 139.102 175.419L146.232 179.049L153.361 182.678C156.39 176.728 159.321 170.103 161.473 165.028C162.554 162.477 163.451 160.29 164.079 158.736C164.393 157.959 164.64 157.34 164.809 156.911C164.894 156.697 164.96 156.531 165.005 156.416C165.027 156.359 165.045 156.315 165.057 156.284C165.063 156.269 165.067 156.257 165.071 156.248C165.072 156.244 165.074 156.241 165.075 156.238C165.075 156.237 165.076 156.236 165.076 156.235C165.076 156.234 165.076 156.234 165.076 156.234C165.077 156.233 165.077 156.233 157.624 153.326ZM146.232 179.049L139.101 175.422C134.664 184.146 131.725 189.382 130.445 191.604L137.375 195.6L144.306 199.595C145.733 197.12 148.804 191.638 153.362 182.675L146.232 179.049ZM137.375 195.6L129.459 194.448L129.445 194.542L137.362 195.694L145.278 196.846L145.292 196.751L137.375 195.6ZM137.362 195.694C130.47 191.632 130.47 191.632 130.47 191.631C130.47 191.631 130.47 191.631 130.47 191.631C130.47 191.631 130.47 191.63 130.471 191.63C130.471 191.629 130.471 191.629 130.472 191.628C130.472 191.627 130.473 191.626 130.473 191.625C130.474 191.623 130.475 191.622 130.476 191.621C130.478 191.618 130.478 191.617 130.478 191.617C130.478 191.617 130.475 191.622 130.47 191.631C130.459 191.65 130.437 191.686 130.404 191.738C130.34 191.843 130.236 192.009 130.101 192.217L136.811 196.573L143.522 200.928C143.735 200.601 143.906 200.326 144.03 200.126C144.092 200.025 144.142 199.943 144.179 199.88C144.198 199.849 144.214 199.823 144.226 199.802C144.232 199.791 144.238 199.782 144.242 199.775C144.245 199.771 144.247 199.767 144.249 199.764C144.25 199.762 144.251 199.761 144.251 199.76C144.252 199.759 144.252 199.758 144.253 199.757C144.253 199.757 144.253 199.757 144.253 199.756C144.253 199.756 144.253 199.756 144.253 199.756C144.254 199.756 144.254 199.756 137.362 195.694ZM136.811 196.573L129.948 192.463L129.687 192.898L136.551 197.008L143.415 201.118L143.675 200.683L136.811 196.573ZM136.551 197.008L144.422 195.576L144.414 195.536L136.544 196.968L128.673 198.4L128.68 198.44L136.551 197.008ZM136.544 196.968L129.92 192.482C129.31 193.382 128.467 194.485 127.627 195.276C127.435 195.456 127.273 195.591 127.146 195.688C127.016 195.786 126.95 195.823 126.95 195.823C126.953 195.821 126.979 195.807 127.03 195.785C127.081 195.764 127.161 195.733 127.27 195.7C127.487 195.636 127.834 195.563 128.283 195.563V203.563V211.563C133.184 211.563 136.824 208.591 138.593 206.926C140.664 204.977 142.268 202.782 143.168 201.454L136.544 196.968ZM128.283 203.563V195.563C128.557 195.563 129.133 195.656 129.731 196.044C130.271 196.394 130.467 196.749 130.458 196.734C130.338 196.518 130.003 195.58 129.878 193.658C129.763 191.907 129.862 190.034 130.012 188.516C130.084 187.778 130.165 187.168 130.225 186.757C130.255 186.552 130.279 186.399 130.294 186.306C130.302 186.26 130.307 186.229 130.31 186.214C130.311 186.207 130.311 186.204 130.311 186.205C130.311 186.205 130.311 186.207 130.31 186.21C130.31 186.211 130.31 186.213 130.31 186.215C130.309 186.216 130.309 186.217 130.309 186.218C130.309 186.219 130.308 186.221 122.436 184.798C114.564 183.375 114.563 183.377 114.563 183.379C114.563 183.38 114.562 183.382 114.562 183.383C114.561 183.386 114.561 183.39 114.56 183.393C114.559 183.4 114.557 183.409 114.556 183.418C114.552 183.437 114.548 183.461 114.543 183.489C114.534 183.546 114.521 183.62 114.506 183.711C114.476 183.893 114.437 184.143 114.392 184.452C114.302 185.066 114.19 185.923 114.089 186.944C113.892 188.945 113.72 191.763 113.912 194.703C114.093 197.472 114.643 201.225 116.485 204.528C118.603 208.325 122.547 211.563 128.283 211.563V203.563ZM122.436 184.798C114.979 181.9 114.979 181.9 114.979 181.9C114.979 181.9 114.98 181.899 114.98 181.899C114.98 181.899 114.98 181.899 114.98 181.899C114.98 181.899 114.98 181.899 114.979 181.9C114.979 181.902 114.977 181.905 114.976 181.91C114.972 181.919 114.965 181.935 114.957 181.958C114.939 182.003 114.912 182.072 114.875 182.165C114.802 182.351 114.691 182.628 114.548 182.981C114.262 183.689 113.848 184.699 113.343 185.888C112.322 188.29 110.967 191.328 109.565 194.075L116.69 197.713L123.815 201.35C125.458 198.133 126.976 194.714 128.067 192.149C128.617 190.855 129.069 189.755 129.384 188.973C129.542 188.582 129.667 188.269 129.753 188.052C129.796 187.943 129.83 187.857 129.853 187.797C129.865 187.767 129.874 187.744 129.881 187.727C129.884 187.718 129.887 187.711 129.889 187.706C129.89 187.704 129.89 187.701 129.891 187.7C129.891 187.699 129.892 187.698 129.892 187.697C129.892 187.697 129.892 187.697 129.892 187.697C129.893 187.696 129.893 187.696 122.436 184.798ZM116.69 197.713L109.563 194.079C108.941 195.299 108.442 196.255 107.954 197.073C107.469 197.888 107.111 198.364 106.859 198.641C106.628 198.895 106.587 198.867 106.744 198.79C106.938 198.695 107.079 198.697 107.009 198.697V206.697V214.697C112.164 214.697 115.996 212.369 118.686 209.417C121.027 206.848 122.668 203.601 123.817 201.347L116.69 197.713ZM107.009 206.697V198.697C106.681 198.697 106.516 198.693 106.38 198.683C106.256 198.675 106.228 198.665 106.262 198.673C106.302 198.682 106.414 198.713 106.563 198.79C106.719 198.87 106.863 198.972 106.976 199.079L101.464 204.877L95.9517 210.675C100.298 214.807 105.51 214.697 107.009 214.697V206.697ZM101.464 204.877L106.974 199.077C106.274 198.413 104.927 196.334 103.846 192.861C102.82 189.565 102.365 186.06 102.585 183.317L94.6109 182.677L86.6366 182.038C86.2204 187.224 87.0704 192.803 88.5688 197.617C90.012 202.253 92.4092 207.31 95.9536 210.677L101.464 204.877ZM94.6109 182.677L102.585 183.32C103.084 177.12 104.009 173.184 105.13 170.11L97.6146 167.369L90.0989 164.627C88.3774 169.347 87.2234 174.751 86.6368 182.035L94.6109 182.677ZM97.6146 167.369L93.7868 160.344C91.1962 161.755 88.1902 163.436 85.1169 165.24L89.1668 172.139L93.2167 179.038C96.1104 177.34 98.9636 175.744 101.442 174.393L97.6146 167.369ZM89.1668 172.139L85.1053 165.247L80.5185 167.95L84.58 174.842L88.6415 181.734L93.2283 179.031L89.1668 172.139ZM84.58 174.842L77.5734 178.703L77.7214 178.972L84.7281 175.111L91.7348 171.25L91.5867 170.981L84.58 174.842ZM84.7281 175.111L77.6215 178.784C78.7104 180.891 79.7884 185.261 79.5292 190.739C79.2765 196.076 77.7833 201.696 74.6157 206.422L81.2611 210.876L87.9064 215.33C93.0129 207.712 95.1504 199.119 95.5113 191.495C95.8656 184.011 94.5401 176.671 91.8347 171.437L84.7281 175.111ZM81.2611 210.876L74.6144 206.424C67.8782 216.48 55.785 221.937 44.7249 218.861L42.5816 226.569L40.4383 234.276C59.3887 239.546 78.0976 229.974 87.9077 215.328L81.2611 210.876ZM42.5816 226.569L44.729 218.862C45.5513 219.092 44.0492 218.732 42.9735 215.843C42.1004 213.499 41.6953 209.691 44.0246 204.536L36.7343 201.242L29.4441 197.948C25.4645 206.754 25.5621 214.936 27.9794 221.427C30.1941 227.374 34.7701 232.697 40.4342 234.275L42.5816 226.569ZM36.7343 201.242L44.0242 204.537C45.8187 200.567 51.0706 195.642 57.9933 190.876C64.5324 186.373 71.1758 182.93 73.9528 181.554L70.4002 174.386L66.8475 167.218C63.7635 168.747 56.3565 172.576 48.9191 177.697C41.8653 182.555 33.2148 189.606 29.4444 197.947L36.7343 201.242ZM70.4002 174.386L74.2586 181.394L75.8674 180.508L72.0089 173.5L68.1505 166.492L66.5417 167.378L70.4002 174.386ZM72.0089 173.5L77.277 167.48C73.934 164.554 69.4909 161.494 65.1698 158.516C60.683 155.423 56.0448 152.235 51.6643 148.749C42.6185 141.55 36.3716 134.359 34.9085 126.779L27.0535 128.295L19.1985 129.811C21.8249 143.419 32.2131 153.718 41.7012 161.268C46.5877 165.157 51.6912 168.658 56.0901 171.69C60.6547 174.836 64.2412 177.334 66.7409 179.521L72.0089 173.5ZM27.0535 128.295L34.9079 126.776C34.4746 124.536 35.2692 112.873 51.6763 97.5114L46.2086 91.6715L40.7409 85.8316C22.123 103.263 17.3253 120.126 19.1991 129.814L27.0535 128.295ZM46.2086 91.6715L51.6753 97.5123C65.3275 84.7344 84.7177 74.646 103.037 68.133L100.358 60.5952L97.6778 53.0574C78.1408 60.0031 56.5499 71.035 40.7419 85.8307L46.2086 91.6715ZM100.358 60.5952L103.037 68.1331C117.741 62.9063 132.577 61.959 143.953 64.3951C155.61 66.8913 161.675 72.33 163.174 78.2103L170.926 76.2339L178.678 74.2575C175.008 59.863 161.689 51.8302 147.304 48.7498C132.638 45.6092 114.775 46.9799 97.6781 53.0573L100.358 60.5952ZM170.926 76.2339L163.174 78.2098C164.977 85.2836 162.961 93.8871 157.333 102.189C151.749 110.426 143.165 117.462 133.67 121.137L136.557 128.598L139.445 136.059C152.103 131.16 163.244 121.984 170.577 111.167C177.866 100.415 181.957 87.1236 178.678 74.258L170.926 76.2339ZM136.557 128.598L133.67 121.137C115.342 128.23 100.904 126.775 96.2023 125.231L93.706 132.832L91.2097 140.432C99.9446 143.301 118.214 144.274 139.445 136.059L136.557 128.598ZM93.706 132.832L96.2031 125.231C93.4511 124.327 91.3521 122.994 89.9072 121.733C88.3228 120.351 87.9003 119.4 87.9661 119.571L80.4978 122.439L73.0295 125.307C74.1876 128.323 76.5507 131.313 79.3882 133.789C82.365 136.386 86.324 138.827 91.209 140.432L93.706 132.832ZM80.4978 122.439L87.9614 119.559C87.658 118.772 87.7698 118.954 87.8275 119.384C87.8633 119.651 87.974 120.616 87.5824 121.872C87.1134 123.377 86.0379 124.89 84.362 125.815L80.4978 118.81L76.6336 111.805C71.5297 114.621 71.754 119.906 71.9698 121.513C72.2122 123.318 72.908 124.992 73.0342 125.319L80.4978 122.439ZM80.4978 118.81L84.3655 125.813C84.3293 125.833 84.0538 125.987 83.648 126.144C83.2117 126.314 82.5361 126.525 81.6799 126.599C79.726 126.769 78.2219 126.13 77.4145 125.649C76.7862 125.275 76.4827 124.939 76.6651 125.117C76.7877 125.237 77.0287 125.488 77.4876 125.995L83.4201 120.628L89.3525 115.261C88.8526 114.708 88.3385 114.153 87.8453 113.671C87.412 113.248 86.6322 112.516 85.6026 111.903C84.3939 111.183 82.5636 110.462 80.2943 110.659C78.3527 110.828 76.9472 111.632 76.6301 111.807L80.4978 118.81ZM83.4201 120.628L77.4928 126.001C81.1012 129.982 91.0016 136.269 107.404 134.428L106.512 126.478L105.62 118.528C99.8613 119.174 95.8024 118.353 93.2 117.391C90.4764 116.384 89.3087 115.213 89.3474 115.255L83.4201 120.628ZM106.512 126.478L107.403 134.428C127.52 132.173 143.891 123.205 154.4 112.324C159.644 106.896 163.613 100.797 165.725 94.5779C167.828 88.3861 168.24 81.5381 165.421 75.3432L158.139 78.6562L150.857 81.9692C151.519 83.4226 151.787 85.8643 150.575 89.4327C149.372 92.9744 146.855 97.1058 142.892 101.208C134.989 109.39 122.067 116.684 105.621 118.528L106.512 126.478ZM158.139 78.6562L165.42 75.3419C163.094 70.2313 158.49 66.7913 153.556 64.6479C148.522 62.4615 142.388 61.2673 135.617 61.0699C122.034 60.6739 104.887 64.2505 86.3069 73.5161L89.877 80.6753L93.4471 87.8345C110.075 79.5429 124.622 76.7562 135.15 77.0631C140.434 77.2172 144.459 78.1409 147.181 79.3232C150.001 80.5483 150.747 81.7274 150.858 81.9704L158.139 78.6562ZM89.877 80.6753L86.3074 73.5159C64.1616 84.5574 51.6766 95.0191 44.6785 104.27C37.4613 113.811 36.4547 121.577 36.2097 126.04L44.1977 126.478L52.1856 126.917C52.309 124.67 52.6529 120.249 57.4387 113.923C62.4436 107.307 72.6141 98.2216 93.4466 87.8348L89.877 80.6753ZM44.1977 126.478L36.2095 126.043C35.4897 139.243 43.8294 148.518 51.5621 155.236C55.4915 158.65 59.9552 161.97 63.7746 164.941C67.7616 168.043 71.2286 170.898 73.9827 173.838L79.8205 168.368L85.6583 162.898C81.982 158.974 77.6551 155.469 73.5999 152.313C69.377 149.028 65.5501 146.194 62.0556 143.158C54.9406 136.976 51.8992 132.169 52.1858 126.914L44.1977 126.478ZM79.8205 168.368L73.9064 173.755L74.4018 174.299L80.3159 168.912L86.23 163.524L85.7346 162.98L79.8205 168.368ZM80.3159 168.912L84.1812 175.916C86.588 174.588 89.1225 173.19 91.6069 171.826L87.7582 164.813L83.9096 157.8C81.4068 159.173 78.8573 160.579 76.4507 161.907L80.3159 168.912ZM87.7582 164.813L91.6108 171.824C98.0863 168.266 104.194 164.928 107.043 163.372L103.207 156.351L99.3711 149.331C96.521 150.888 90.3989 154.234 83.9057 157.802L87.7582 164.813ZM103.207 156.351L109.798 160.886C111.489 158.427 114.238 155.618 117.24 153.473C120.48 151.158 122.747 150.512 123.549 150.512V142.512V134.512C117.72 134.512 112.079 137.496 107.937 140.455C103.557 143.585 99.4509 147.696 96.6159 151.817L103.207 156.351ZM123.549 142.512V150.512C124.01 150.512 123.385 150.541 122.876 149.908C122.668 149.649 122.923 149.819 123.051 150.996C123.168 152.064 123.106 153.301 122.972 154.391C122.909 154.907 122.836 155.33 122.784 155.606C122.758 155.743 122.738 155.84 122.727 155.89C122.722 155.915 122.719 155.928 122.719 155.928C122.719 155.928 122.719 155.925 122.721 155.919C122.722 155.915 122.723 155.911 122.724 155.906C122.724 155.904 122.725 155.901 122.726 155.898C122.726 155.897 122.727 155.895 122.727 155.894C122.727 155.891 122.728 155.889 130.509 157.748C138.29 159.607 138.29 159.605 138.291 159.602C138.291 159.601 138.292 159.599 138.292 159.597C138.293 159.593 138.294 159.589 138.295 159.584C138.297 159.576 138.3 159.566 138.302 159.556C138.307 159.535 138.313 159.51 138.319 159.481C138.332 159.423 138.349 159.351 138.367 159.264C138.405 159.091 138.452 158.861 138.505 158.581C138.611 158.024 138.74 157.256 138.852 156.344C139.07 154.577 139.256 152.004 138.957 149.264C138.671 146.632 137.849 142.993 135.342 139.877C132.533 136.387 128.389 134.512 123.549 134.512V142.512ZM130.509 157.748C138.155 160.103 138.154 160.104 138.154 160.106C138.154 160.106 138.153 160.108 138.153 160.108C138.152 160.11 138.152 160.112 138.151 160.114C138.15 160.118 138.149 160.121 138.148 160.125C138.145 160.132 138.143 160.14 138.141 160.147C138.136 160.161 138.132 160.176 138.127 160.19C138.118 160.218 138.109 160.246 138.099 160.275C138.081 160.33 138.059 160.391 138.035 160.456C137.993 160.566 137.91 160.777 137.773 161.045C137.672 161.242 137.345 161.867 136.715 162.556C136.233 163.083 134.376 164.972 131.189 165.042L131.012 157.044L130.834 149.046C127.504 149.12 125.511 151.099 124.909 151.758C124.157 152.58 123.722 153.38 123.532 153.752C123.305 154.195 123.15 154.581 123.059 154.822C123.01 154.953 122.97 155.068 122.938 155.162C122.922 155.209 122.908 155.252 122.896 155.291C122.889 155.31 122.884 155.328 122.878 155.345C122.876 155.354 122.873 155.362 122.871 155.37C122.869 155.374 122.868 155.378 122.867 155.382C122.866 155.384 122.866 155.386 122.865 155.388C122.865 155.389 122.864 155.39 122.864 155.391C122.864 155.392 122.863 155.393 130.509 157.748ZM131.012 157.044L131.23 165.041C132.304 165.012 133.168 164.774 133.735 164.571C134.31 164.366 134.757 164.133 135.046 163.968C135.593 163.655 135.991 163.343 136.13 163.233C136.298 163.1 136.442 162.977 136.479 162.945C136.523 162.908 136.514 162.915 136.54 162.893C136.552 162.882 136.556 162.88 136.555 162.88C136.527 162.904 136.211 163.17 135.707 163.41C135.168 163.667 134.558 163.828 133.948 163.848C133.36 163.869 133.023 163.75 133.011 163.746L135.753 156.231L138.495 148.715C136.847 148.114 135.136 147.798 133.4 147.858C131.642 147.918 130.107 148.355 128.83 148.963C127.587 149.555 126.718 150.248 126.284 150.612C125.869 150.959 126.188 150.697 126.206 150.683C126.277 150.626 126.616 150.356 127.111 150.074C127.466 149.871 128.832 149.101 130.794 149.047L131.012 157.044ZM135.753 156.231L132.997 163.741C132.974 163.733 132.508 163.555 131.944 162.996C131.348 162.404 130.9 161.64 130.654 160.817C130.425 160.051 130.423 159.416 130.443 159.071C130.453 158.898 130.471 158.774 130.468 158.8C130.467 158.805 130.466 158.811 130.465 158.822C130.463 158.832 130.461 158.849 130.458 158.868C130.454 158.9 130.444 158.975 130.433 159.066C130.424 159.148 130.404 159.321 130.39 159.538C130.38 159.711 130.353 160.176 130.405 160.763L138.374 160.069L146.344 159.375C146.394 159.947 146.368 160.393 146.359 160.542C146.347 160.736 146.33 160.883 146.324 160.934C146.316 161.003 146.302 161.103 146.32 160.971C146.341 160.816 146.389 160.459 146.415 160.012C146.468 159.117 146.443 157.769 145.982 156.228C144.914 152.661 142.162 150.061 138.509 148.72L135.753 156.231ZM138.374 160.069L130.404 160.753C130.341 160.02 130.399 159.451 130.411 159.325C130.432 159.107 130.458 158.939 130.471 158.862C130.486 158.773 130.498 158.707 130.505 158.673C130.512 158.637 130.517 158.614 130.518 158.607C130.52 158.601 130.504 158.672 130.456 158.863C130.364 159.226 130.219 159.772 130.02 160.509C129.635 161.935 129.069 164.002 128.463 166.278C127.254 170.81 125.766 176.612 124.873 181.262L132.729 182.772L140.586 184.281C141.361 180.243 142.716 174.928 143.923 170.398C144.524 168.143 145.059 166.192 145.468 164.676C145.666 163.941 145.841 163.284 145.968 162.783C146.029 162.541 146.097 162.264 146.154 162.004C146.18 161.882 146.223 161.677 146.262 161.439C146.281 161.322 146.312 161.122 146.336 160.875C146.351 160.723 146.409 160.132 146.345 159.385L138.374 160.069ZM132.729 182.772L124.874 181.258C124.356 183.946 124.23 186.341 124.296 188.194C124.328 189.098 124.411 190.012 124.565 190.849C124.633 191.218 124.766 191.867 125.032 192.584C125.147 192.892 125.442 193.651 126.022 194.482C126.233 194.783 128.344 197.938 132.629 197.938V189.938V181.938C134.847 181.938 136.488 182.839 137.414 183.535C138.314 184.212 138.865 184.927 139.142 185.324C139.69 186.109 139.952 186.798 140.033 187.016C140.231 187.552 140.297 187.932 140.3 187.953C140.326 188.094 140.299 187.995 140.286 187.625C140.261 186.931 140.304 185.744 140.585 184.285L132.729 182.772ZM132.629 189.938V197.938C134.729 197.938 136.25 197.136 136.927 196.723C137.686 196.262 138.228 195.768 138.535 195.467C139.152 194.861 139.605 194.249 139.86 193.89C140.408 193.115 140.903 192.257 141.261 191.606L134.251 187.75L127.241 183.895C127.123 184.111 127.018 184.294 126.93 184.439C126.837 184.594 126.793 184.656 126.799 184.648C126.803 184.642 126.841 184.588 126.91 184.503C126.973 184.426 127.115 184.256 127.331 184.044C127.519 183.86 127.95 183.457 128.607 183.057C129.182 182.707 130.61 181.938 132.629 181.938V189.938ZM134.251 187.75L141.665 184.744L141.651 184.71L134.237 187.717L126.824 190.723L126.837 190.757L134.251 187.75ZM134.237 187.717C141.258 191.552 141.258 191.552 141.258 191.552C141.258 191.552 141.258 191.552 141.258 191.551C141.259 191.551 141.259 191.551 141.259 191.551C141.259 191.55 141.259 191.549 141.26 191.549C141.261 191.547 141.261 191.546 141.262 191.544C141.264 191.54 141.267 191.536 141.27 191.531C141.275 191.52 141.283 191.506 141.292 191.489C141.311 191.455 141.336 191.407 141.369 191.347C141.434 191.226 141.526 191.054 141.643 190.833C141.876 190.392 142.209 189.754 142.621 188.944L135.491 185.315L128.362 181.687C127.989 182.419 127.695 182.983 127.497 183.356C127.399 183.542 127.324 183.681 127.277 183.77C127.253 183.814 127.236 183.846 127.226 183.864C127.221 183.874 127.218 183.88 127.216 183.883C127.215 183.884 127.215 183.884 127.215 183.884C127.215 183.884 127.215 183.884 127.216 183.883C127.216 183.883 127.216 183.883 127.216 183.882C127.216 183.882 127.216 183.882 127.216 183.882C127.216 183.882 127.217 183.881 127.217 183.881C127.217 183.881 127.217 183.881 134.237 187.717ZM135.491 185.315L142.707 188.77L142.862 188.447L135.646 184.993L128.43 181.538L128.276 181.861L135.491 185.315ZM135.646 184.993L128.317 188.199L128.323 188.213L135.652 185.007L142.982 181.801L142.975 181.787L135.646 184.993ZM135.652 185.007L142.776 188.648C143.762 186.72 145.114 183.946 146.662 180.545L139.38 177.231L132.098 173.918C130.642 177.118 129.395 179.672 128.529 181.367L135.652 185.007ZM139.38 177.231L146.665 180.537C148.147 177.271 151.699 169.368 155.001 161.933C158.176 154.784 161.447 147.345 162.071 145.529L154.506 142.928L146.94 140.328C146.95 140.299 146.914 140.404 146.787 140.72C146.673 141.004 146.519 141.376 146.326 141.836C145.941 142.755 145.427 143.952 144.816 145.358C143.597 148.168 142.022 151.738 140.378 155.439C137.091 162.842 133.556 170.705 132.095 173.926L139.38 177.231ZM154.506 142.928L162.072 145.527C162.671 143.784 163.103 142.081 163.41 140.845C163.576 140.174 163.688 139.714 163.796 139.301C163.914 138.853 163.943 138.799 163.896 138.922L156.424 136.065L148.951 133.207C148.669 133.945 148.46 134.709 148.323 135.231C148.176 135.787 148.016 136.447 147.881 136.992C147.584 138.187 147.293 139.302 146.94 140.33L154.506 142.928ZM156.424 136.065L163.91 138.885C163.368 140.324 162.52 141.203 162.047 141.62C161.556 142.053 161.15 142.271 161.007 142.343C160.734 142.482 160.742 142.432 161.212 142.322C162.096 142.116 163.598 141.931 165.436 141.945L165.495 133.945L165.553 125.945C162.752 125.925 159.95 126.186 157.574 126.742C156.413 127.012 155.053 127.422 153.761 128.078C152.848 128.542 150.159 130.003 148.937 133.244L156.424 136.065ZM165.495 133.945L165.436 141.945C166.737 141.954 166.042 142.239 164.858 141.311C163.527 140.267 162.791 138.652 162.661 136.99L170.637 136.367L178.613 135.744C178.451 133.673 177.464 130.864 174.73 128.72C172.142 126.691 168.892 125.97 165.553 125.945L165.495 133.945ZM170.637 136.367L162.664 137.027C162.59 136.133 162.692 135.444 162.717 135.273C162.756 135 162.802 134.795 162.822 134.705C162.864 134.522 162.898 134.415 162.888 134.45C162.872 134.503 162.824 134.651 162.717 134.97C162.53 135.524 162.201 136.478 161.873 137.488C161.242 139.432 160.347 142.377 159.985 145.101L167.915 146.155L175.845 147.21C176 146.05 176.482 144.305 177.092 142.428C177.384 141.527 177.641 140.788 177.88 140.076C177.986 139.761 178.113 139.382 178.215 139.042C178.263 138.88 178.342 138.609 178.413 138.299C178.449 138.145 178.505 137.886 178.551 137.568C178.582 137.352 178.686 136.627 178.61 135.707L170.637 136.367ZM167.915 146.155L159.983 145.116C159.306 150.283 160.021 153.461 160.384 156.266L168.318 155.239L176.252 154.212C175.771 150.494 175.506 149.796 175.847 147.195L167.915 146.155ZM168.318 155.239L160.384 156.263C160.66 158.406 161.393 160.404 162.063 161.976C162.755 163.601 163.607 165.28 164.389 166.801L171.504 163.142L178.618 159.483C177.823 157.938 177.22 156.732 176.783 155.705C176.323 154.625 176.251 154.205 176.252 154.215L168.318 155.239ZM171.504 163.142L178.329 167.316C180.803 163.271 184.192 157.421 187.084 152.013C188.528 149.313 189.889 146.646 190.96 144.329C191.911 142.272 193.006 139.721 193.418 137.587L185.563 136.071L177.708 134.555C177.714 134.524 177.449 135.427 176.437 137.614C175.547 139.541 174.344 141.907 172.975 144.468C170.24 149.581 167.006 155.164 164.679 158.968L171.504 163.142ZM185.563 136.071L193.418 137.588C193.873 135.23 194.625 132.922 194.953 132.065L187.481 129.207L180.008 126.35C179.396 127.95 178.364 131.158 177.708 134.554L185.563 136.071ZM187.481 129.207L194.954 132.062C194.41 133.487 193.567 134.357 193.097 134.771C192.61 135.199 192.207 135.415 192.064 135.488C191.793 135.625 191.803 135.575 192.272 135.465C193.155 135.259 194.656 135.075 196.495 135.088L196.552 127.088L196.609 119.088C193.808 119.068 191.008 119.33 188.633 119.885C187.473 120.156 186.113 120.565 184.823 121.22C183.907 121.685 181.236 123.137 180.007 126.353L187.481 129.207ZM196.552 127.088L196.493 135.088C197.794 135.097 197.098 135.382 195.913 134.453C194.577 133.405 193.856 131.794 193.721 130.169L201.694 129.51L209.667 128.852C209.499 126.817 208.527 124.012 205.787 121.863C203.2 119.834 199.95 119.112 196.61 119.088L196.552 127.088ZM201.694 129.51L193.721 130.169C193.648 129.274 193.749 128.584 193.774 128.412C193.814 128.139 193.86 127.933 193.88 127.843C193.923 127.66 193.957 127.552 193.946 127.587C193.93 127.64 193.883 127.788 193.775 128.107C193.588 128.663 193.258 129.616 192.929 130.628C192.297 132.572 191.398 135.525 191.04 138.259L198.972 139.299L206.904 140.338C207.055 139.188 207.535 137.451 208.145 135.575C208.437 134.676 208.694 133.936 208.935 133.225C209.041 132.911 209.167 132.532 209.27 132.191C209.318 132.028 209.398 131.757 209.469 131.447C209.505 131.293 209.561 131.033 209.608 130.714C209.639 130.497 209.743 129.772 209.667 128.852L201.694 129.51ZM198.972 139.299L191.041 138.255C190.361 143.418 191.079 146.608 191.44 149.408L199.374 148.383L207.308 147.357C206.827 143.636 206.563 142.935 206.904 140.342L198.972 139.299ZM199.374 148.383L191.441 149.414C191.793 152.121 192.896 154.71 193.794 156.626C194.697 158.554 195.964 160.942 196.884 162.777L204.035 159.19L211.186 155.603C209.966 153.171 209.085 151.551 208.283 149.839C207.917 149.059 207.664 148.454 207.497 147.981C207.324 147.493 207.302 147.309 207.308 147.351L199.374 148.383ZM204.035 159.19L207.572 166.365C212.415 163.978 218.099 162.373 224.834 162.34L224.794 154.34L224.754 146.34C215.396 146.387 207.333 148.645 200.498 152.014L204.035 159.19ZM224.794 154.34L224.84 162.339C226.244 162.331 227.769 162.399 229.117 162.53C229.788 162.596 230.368 162.672 230.835 162.752C231.067 162.792 231.252 162.829 231.393 162.861C231.462 162.876 231.515 162.89 231.554 162.9C231.593 162.91 231.611 162.915 231.61 162.915L233.993 155.278L236.375 147.641C233.151 146.635 228.259 146.32 224.747 146.34L224.794 154.34ZM233.993 155.278H241.993V91.0938H233.993H225.993V155.278H233.993ZM233.993 91.0938H241.993C241.993 83.8177 238.241 76.9455 231.746 73.2015L227.751 80.1324L223.755 87.0633C225.103 87.8402 225.993 89.3134 225.993 91.0938H233.993ZM227.751 80.1324L231.754 73.2061L127.051 12.6897L123.047 19.616L119.044 26.5423L223.747 87.0587L227.751 80.1324ZM123.047 19.616L127.049 12.6886C120.658 8.99686 112.813 8.99733 106.422 12.6882L110.422 19.616L114.423 26.5437C115.864 25.7118 117.607 25.7123 119.046 26.5433L123.047 19.616ZM110.422 19.616L106.412 12.6936L1.99802 73.1808L6.00813 80.1031L10.0182 87.0255L114.433 26.5383L110.422 19.616ZM6.00813 80.1031L2.00737 73.1754C-4.71834 77.0594 -8 84.096 -8 91.0655H0H8C8 88.9931 8.90292 87.6696 10.0089 87.0309L6.00813 80.1031ZM0 91.0655H-8V212.15H0H8V91.0655H0ZM0 212.15H-8C-8 219.135 -4.69412 226.161 2.01007 230.037L6.01453 223.112L10.019 216.186C8.9043 215.542 8 214.208 8 212.15H0ZM6.01453 223.112L2.00689 230.036L106.589 290.57L110.597 283.647L114.605 276.723L10.0222 216.188L6.01453 223.112ZM110.597 283.647L106.586 290.568C112.982 294.275 120.79 294.275 127.186 290.568L123.174 283.647L119.163 276.725C117.729 277.556 116.042 277.556 114.608 276.725L110.597 283.647ZM123.174 283.647L127.181 290.571L231.811 230.036L227.804 223.112L223.798 216.187L119.168 276.722L123.174 283.647ZM227.804 223.112L231.814 230.034C238.329 226.26 242 219.371 242 212.15H234H226C226 213.97 225.11 215.428 223.795 216.189L227.804 223.112ZM234 212.15H242V163.215H234H226V212.15H234ZM234 163.215L236.26 155.541C234.241 154.946 231.728 154.578 229.762 154.349L228.836 162.296L227.911 170.242C229.728 170.454 231.103 170.702 231.74 170.889L234 163.215ZM116.19 155.955L110.223 150.627C107.147 154.072 102.813 161.559 100.728 167.882L108.326 170.387L115.923 172.893C116.612 170.804 117.773 168.304 119.07 165.982C120.412 163.581 121.599 161.909 122.158 161.283L116.19 155.955ZM108.326 170.387L100.729 167.879C98.6118 174.29 97.9974 180.746 98.3116 185.87C98.4668 188.401 98.8678 190.936 99.6214 193.125C99.9929 194.205 100.556 195.515 101.447 196.75C102.275 197.899 103.969 199.781 106.808 200.522L108.828 192.782L110.849 185.041C113.058 185.618 114.152 187.014 114.427 187.395C114.765 187.864 114.822 188.126 114.75 187.917C114.617 187.53 114.382 186.528 114.282 184.891C114.085 181.677 114.479 177.265 115.922 172.896L108.326 170.387ZM108.828 192.782L106.802 200.521C110.72 201.547 113.718 199.676 114.979 198.677C116.331 197.606 117.307 196.313 117.941 195.379C119.263 193.43 120.449 190.983 121.422 188.785C123.28 184.588 125.44 178.67 126.313 176.542L118.911 173.506L111.51 170.47C110.071 173.978 108.662 178.083 106.791 182.308C105.901 184.321 105.183 185.684 104.7 186.397C104.431 186.793 104.529 186.543 105.044 186.135C105.47 185.798 107.673 184.21 110.855 185.043L108.828 192.782ZM118.911 173.506L126.312 176.544C127.137 174.535 128.985 169.513 130.481 164.698C131.226 162.299 131.948 159.749 132.403 157.557C132.626 156.483 132.834 155.262 132.906 154.077C132.942 153.485 132.958 152.71 132.861 151.862C132.777 151.123 132.543 149.671 131.65 148.157L124.759 152.219L117.867 156.282C117.129 155.03 116.995 153.945 116.963 153.667C116.919 153.28 116.939 153.06 116.936 153.104C116.931 153.19 116.89 153.564 116.736 154.307C116.437 155.752 115.891 157.731 115.201 159.951C113.827 164.374 112.135 168.948 111.511 170.468L118.911 173.506ZM124.759 152.219L131.653 148.162C129.729 144.892 126.519 143.747 124.128 143.566C121.906 143.397 119.922 143.953 118.48 144.533C115.507 145.73 112.636 147.922 110.221 150.629L116.19 155.955L122.16 161.281C123.358 159.938 124.29 159.442 124.457 159.375C124.585 159.324 124.005 159.603 122.916 159.52C121.656 159.424 119.307 158.728 117.864 156.277L124.759 152.219ZM116.19 155.955M116.19 155.955M156.925 192.29C151.428 186.478 151.427 186.479 151.426 186.48C151.425 186.48 151.424 186.481 151.424 186.482C151.422 186.483 151.421 186.485 151.42 186.486C151.417 186.489 151.414 186.491 151.411 186.494C151.405 186.5 151.399 186.506 151.393 186.512C151.38 186.524 151.366 186.537 151.351 186.551C151.322 186.58 151.288 186.613 151.251 186.65C151.178 186.722 151.086 186.816 150.983 186.927C150.799 187.123 150.476 187.48 150.139 187.944C149.922 188.243 149.13 189.331 148.717 190.909C148.494 191.762 148.228 193.324 148.737 195.177C149.313 197.274 150.665 198.947 152.356 199.978L156.522 193.149L160.689 186.32C162.303 187.305 163.61 188.915 164.166 190.939C164.655 192.72 164.395 194.199 164.195 194.962C163.985 195.762 163.693 196.344 163.529 196.643C163.349 196.971 163.182 197.213 163.079 197.354C162.88 197.627 162.716 197.805 162.656 197.869C162.614 197.914 162.575 197.953 162.54 197.989C162.521 198.007 162.503 198.025 162.484 198.044C162.474 198.053 162.464 198.062 162.454 198.072C162.449 198.077 162.444 198.082 162.439 198.087C162.436 198.089 162.434 198.092 162.431 198.094C162.43 198.095 162.428 198.097 162.427 198.098C162.426 198.098 162.425 198.099 162.425 198.1C162.424 198.101 162.423 198.102 156.925 192.29ZM156.522 193.149L152.417 200.016C154.255 201.114 156.044 201.254 157.083 201.233C158.16 201.211 159.058 201.003 159.644 200.837C160.808 200.506 161.833 200.014 162.512 199.66L158.816 192.565L155.119 185.47C154.82 185.626 154.906 185.55 155.272 185.446C155.458 185.393 155.993 185.252 156.754 185.236C157.477 185.221 158.998 185.308 160.627 186.283L156.522 193.149ZM158.816 192.565L163.077 199.336C164.664 198.337 167.648 196.349 170.29 193.418C172.926 190.495 175.801 185.976 175.814 180.057L167.814 180.04L159.814 180.023C159.813 180.538 159.574 181.41 158.407 182.705C157.246 183.992 155.737 185.05 154.554 185.794L158.816 192.565ZM167.814 180.04H175.814C175.814 179.637 175.798 179.276 175.776 178.952L167.794 179.477L159.811 180.001C159.813 180.036 159.814 180.052 159.814 180.055C159.814 180.058 159.814 180.051 159.814 180.04H167.814ZM167.794 179.477L161.43 174.628C160.037 176.456 158.752 178.086 157.638 179.475L163.878 184.481L170.118 189.487C171.296 188.018 172.667 186.281 174.157 184.325L167.794 179.477ZM163.878 184.481L157.643 179.468C156.835 180.473 155.253 182.256 153.74 183.926C153.011 184.731 152.34 185.463 151.851 185.994C151.607 186.259 151.409 186.473 151.272 186.62C151.204 186.694 151.152 186.751 151.117 186.789C151.099 186.808 151.086 186.822 151.077 186.831C151.073 186.836 151.07 186.839 151.068 186.841C151.067 186.842 151.066 186.843 151.066 186.843C151.066 186.844 151.066 186.844 151.065 186.844C151.065 186.844 151.065 186.844 151.065 186.844C151.066 186.844 151.066 186.844 156.925 192.29C162.785 197.736 162.785 197.736 162.786 197.736C162.786 197.736 162.786 197.736 162.786 197.736C162.786 197.735 162.787 197.735 162.787 197.734C162.788 197.734 162.789 197.732 162.79 197.731C162.793 197.728 162.797 197.723 162.802 197.718C162.813 197.707 162.828 197.69 162.847 197.669C162.886 197.627 162.943 197.566 163.015 197.488C163.16 197.332 163.367 197.107 163.622 196.831C164.131 196.278 164.831 195.514 165.595 194.671C167.068 193.045 168.963 190.924 170.112 189.494L163.878 184.481ZM156.925 192.29M156.925 192.29" fill="#DCEEDC" mask="url(#path-1-inside-1_979_2474)"/>
</g>
<defs>
<clipPath id="clip0_979_2474">
<rect width="296" height="260" fill="white"/>
</clipPath>
</defs>
</svg>
