<svg width="208" height="138" viewBox="0 0 208 138" fill="none" xmlns="http://www.w3.org/2000/svg">
<path d="M65.5 52.3333C74.2333 17.4444 96.0667 0 131 0C183.4 0 189.95 39.25 216.15 45.7917C233.617 50.1528 248.9 43.6111 262 26.1667C253.267 61.0556 231.433 78.5 196.5 78.5C144.1 78.5 137.55 39.25 111.35 32.7083C93.8833 28.3472 78.6 34.8889 65.5 52.3333ZM0 130.833C8.73333 95.9445 30.5667 78.5 65.5 78.5C117.9 78.5 124.45 117.75 150.65 124.292C168.117 128.653 183.4 122.111 196.5 104.667C187.767 139.556 165.933 157 131 157C78.6 157 72.05 117.75 45.85 111.208C28.3833 106.847 13.1 113.389 0 130.833Z" fill="#DCEEDC"/>
</svg>
